<?xml version="1.0" encoding="UTF-8" standalone="no"?>
<!-- Created with Inkscape (http://www.inkscape.org/) -->

<svg
   xmlns:dc="http://purl.org/dc/elements/1.1/"
   xmlns:cc="http://creativecommons.org/ns#"
   xmlns:rdf="http://www.w3.org/1999/02/22-rdf-syntax-ns#"
   xmlns:svg="http://www.w3.org/2000/svg"
   xmlns="http://www.w3.org/2000/svg"
   xmlns:sodipodi="http://sodipodi.sourceforge.net/DTD/sodipodi-0.dtd"
   xmlns:inkscape="http://www.inkscape.org/namespaces/inkscape"
   width="440.26666mm"
   height="440.26666mm"
   viewBox="0 0 440.26666 440.26666"
   version="1.1"
   id="svg8"
   inkscape:version="0.92.4 5da689c313, 2019-01-14"
   sodipodi:docname="analyse.svg">
  <defs
     id="defs2" />
  <sodipodi:namedview
     id="base"
     pagecolor="#ffffff"
     bordercolor="#666666"
     borderopacity="1.0"
     inkscape:pageopacity="0.0"
     inkscape:pageshadow="2"
     inkscape:zoom="0.35"
     inkscape:cx="2671.9991"
     inkscape:cy="511.99956"
     inkscape:document-units="mm"
     inkscape:current-layer="layer1"
     showgrid="false"
     inkscape:window-width="3840"
     inkscape:window-height="2132"
     inkscape:window-x="3840"
     inkscape:window-y="0"
     inkscape:window-maximized="1" />
  <metadata
     id="metadata5">
    <rdf:RDF>
      <cc:Work
         rdf:about="">
        <dc:format>image/svg+xml</dc:format>
        <dc:type
           rdf:resource="http://purl.org/dc/dcmitype/StillImage" />
        <dc:title></dc:title>
      </cc:Work>
    </rdf:RDF>
  </metadata>
  <g
     inkscape:label="Layer 1"
     inkscape:groupmode="layer"
     id="layer1"
     transform="translate(731.1569,246.68106)">
    <path
       style="stroke-width:0.56473207"
       d="m -2059.4277,-932.33789 c -95.3334,0 -186.5,18.50001 -273.5,55.5 -87,37.00001 -162,87.00001 -225,150 -63,63.00001 -113,138.00001 -150,225 -37,87.00002 -55.5,178.16668 -55.5,273.5 0,95.33334 18.5,186.500012 55.5,273.499999 37,87.000011 87,162.000011 150,225.000001 63,63.00001 138,113.00002 225,150 87,37.00001 178.1666,55.5 273.5,55.5 146.6666,0 279.6666,-41.33335 399,-124 l 343,342 c 24,25.33332 54,38 90,38 34.6666,0 64.6666,-12.66668 90,-38 25.3333,-25.33334 38,-55.33334 38,-90 0,-35.33334 -12.3334,-65.33334 -37,-90 l -343,-343 c 82.6666,-119.333316 124,-252.333316 124,-399 0,-95.33332 -18.5,-186.49998 -55.5,-273.5 -37,-86.99999 -87,-161.99999 -150,-225 -63,-62.99999 -138,-112.99999 -225,-150 -87,-36.99999 -178.1667,-55.5 -273.5,-55.5 z m 0,256 c 123.3333,0 228.8333,43.83333 316.5,131.5 87.6666,87.66667 131.5,193.16668 131.5,316.5 0,123.33334 -43.8334,228.83332851 -131.5,316.499999 -87.6667,87.666671 -193.1667,131.500001 -316.5,131.500001 -74.9537,0 -143.321,-16.19161 -205.1016,-48.57031 h 384.0996 c 9.7887,0 18.2608,-3.57721 25.4141,-10.73047 7.1532,-7.15329 10.7285,-15.62341 10.7285,-25.41211 V 62.662109 c 0,-9.788699 -3.5753,-18.258825 -10.7285,-25.412109 -7.1533,-7.153256 -15.6254,-10.730469 -25.4141,-10.730469 h -547.8359 c -16.3952,-23.0590474 -30.2455,-47.153714 -41.5469,-72.285156 h 372.5254 c 9.7887,0 18.2608,-3.577201 25.4141,-10.730469 7.1532,-7.153282 10.7304,-15.623428 10.7304,-25.412109 v -72.287107 c 0,-9.7887 -3.5772,-18.25884 -10.7304,-25.41211 -7.1533,-7.15327 -15.6254,-10.73047 -25.4141,-10.73047 h -408.7051 c -0.9533,-12.47344 -1.4355,-25.13871 -1.4355,-38 0,-11.586 0.3865,-23.01391 1.1601,-34.28516 h 553.5528 c 9.7887,0 18.2588,-3.5772 25.4121,-10.73047 7.1533,-7.15328 10.7304,-15.62344 10.7304,-25.4121 v -72.28516 c 0,-9.7887 -3.5771,-18.26073 -10.7304,-25.41406 -7.1533,-7.15329 -15.6234,-10.73047 -25.4121,-10.73047 h -518.7442 c 11.002,-25.12154 24.5254,-49.21769 40.5762,-72.28516 h 341.3105 c 9.7887,0 18.2608,-3.57718 25.4141,-10.73047 7.1533,-7.15326 10.7285,-15.62341 10.7285,-25.41211 v -72.28515 c 0,-9.7887 -3.5752,-18.26081 -10.7285,-25.41407 -7.1533,-7.15328 -15.6254,-10.73046 -25.4141,-10.73046 h -181.875 c 63.5843,-34.85188 134.256,-52.28516 212.0196,-52.28516 z"
       transform="scale(0.26458333)"
       id="path3752"
       inkscape:connector-curvature="0" />
  </g>
</svg>
